HIERARCHY
ROOT Hips
{
	OFFSET 0.000000 100.481300 0.000000
	CHANNELS 6 Xposition Yposition Zposition Xrotation Yrotation Zrotation
	JOINT Spine
	{
		OFFSET -0.279200 12.230698 -2.892100
		CHANNELS 3 Xrotation Yrotation Zrotation
		JOINT Spine1
		{
			OFFSET -0.325700 14.269203 -3.374200
			CHANNELS 3 Xrotation Yrotation Zrotation
			JOINT Spine2
			{
				OFFSET -0.372300 16.307602 -0.352600
				CHANNELS 3 Xrotation Yrotation Zrotation
				JOINT Neck
				{
					OFFSET -0.418800 17.814194 8.416900
					CHANNELS 3 Xrotation Yrotation Zrotation
					JOINT Head
					{
						OFFSET 0.000000 7.031097 3.806800
						CHANNELS 3 Xrotation Yrotation Zrotation
						JOINT HeadTop_End
						{
							OFFSET 0.000000 24.646606 12.978600
							CHANNELS 3 Xrotation Yrotation Zrotation
							End Site
							{
								OFFSET 0.000000 27.854965 0.000000
							}
						}
					}
				}
				JOINT LeftShoulder
				{
					OFFSET 16.952999 14.495407 -7.737500
					CHANNELS 3 Xrotation Yrotation Zrotation
					JOINT LeftArm
					{
						OFFSET 9.308998 -2.777710 0.208600
						CHANNELS 3 Xrotation Yrotation Zrotation
						JOINT LeftForeArm
						{
							OFFSET 29.972298 0.000000 0.000000
							CHANNELS 3 Xrotation Yrotation Zrotation
							JOINT LeftHand
							{
								OFFSET 26.026505 0.000000 0.000000
								CHANNELS 3 Xrotation Yrotation Zrotation
								JOINT LeftHandThumb1
								{
									OFFSET 12.240501 -7.147949 9.207150
									CHANNELS 3 Xrotation Yrotation Zrotation
									JOINT LeftHandThumb2
									{
										OFFSET 4.138618 -2.389435 2.389433
										CHANNELS 3 Xrotation Yrotation Zrotation
										JOINT LeftHandThumb3
										{
											OFFSET 2.726913 -1.574387 1.574386
											CHANNELS 3 Xrotation Yrotation Zrotation
											JOINT LeftHandThumb4
											{
												OFFSET 3.941010 -2.275345 2.275342
												CHANNELS 3 Xrotation Yrotation Zrotation
												End Site
												{
													OFFSET -0.005798 5.087799 0.009903
												}
											}
										}
									}
								}
								JOINT LeftHandIndex1
								{
									OFFSET 24.424698 -1.985611 5.953459
									CHANNELS 3 Xrotation Yrotation Zrotation
									JOINT LeftHandIndex2
									{
										OFFSET 6.426697 0.000000 0.000000
										CHANNELS 3 Xrotation Yrotation Zrotation
										JOINT LeftHandIndex3
										{
											OFFSET 5.337898 0.000000 0.000000
											CHANNELS 3 Xrotation Yrotation Zrotation
											JOINT LeftHandIndex4
											{
												OFFSET 4.409401 0.000000 0.000000
												CHANNELS 3 Xrotation Yrotation Zrotation
												End Site
												{
													OFFSET 0.000000 4.409363 0.014373
												}
											}
										}
									}
								}
								JOINT LeftHandMiddle1
								{
									OFFSET 23.810104 0.000000 0.000000
									CHANNELS 3 Xrotation Yrotation Zrotation
									JOINT LeftHandMiddle2
									{
										OFFSET 7.176498 0.000000 0.000000
										CHANNELS 3 Xrotation Yrotation Zrotation
										JOINT LeftHandMiddle3
										{
											OFFSET 6.774902 0.000000 0.000000
											CHANNELS 3 Xrotation Yrotation Zrotation
											JOINT LeftHandMiddle4
											{
												OFFSET 5.403328 0.000000 0.000000
												CHANNELS 3 Xrotation Yrotation Zrotation
												End Site
												{
													OFFSET -0.027702 5.403244 0.017414
												}
											}
										}
									}
								}
								JOINT LeftHandRing1
								{
									OFFSET 22.908401 -0.839279 -6.020567
									CHANNELS 3 Xrotation Yrotation Zrotation
									JOINT LeftHandRing2
									{
										OFFSET 6.337502 0.000000 0.000000
										CHANNELS 3 Xrotation Yrotation Zrotation
										JOINT LeftHandRing3
										{
											OFFSET 5.779297 0.000000 0.000000
											CHANNELS 3 Xrotation Yrotation Zrotation
											JOINT LeftHandRing4
											{
												OFFSET 4.965698 0.000000 0.000000
												CHANNELS 3 Xrotation Yrotation Zrotation
												End Site
												{
													OFFSET 0.000000 4.965668 0.016186
												}
											}
										}
									}
								}
								JOINT LeftHandPinky1
								{
									OFFSET 20.037003 -1.530319 -10.950146
									CHANNELS 3 Xrotation Yrotation Zrotation
									JOINT LeftHandPinky2
									{
										OFFSET 5.254700 0.000000 0.000000
										CHANNELS 3 Xrotation Yrotation Zrotation
										JOINT LeftHandPinky3
										{
											OFFSET 4.810204 0.000000 0.000000
											CHANNELS 3 Xrotation Yrotation Zrotation
											JOINT LeftHandPinky4
											{
												OFFSET 3.647202 0.000000 0.000000
												CHANNELS 3 Xrotation Yrotation Zrotation
												End Site
												{
													OFFSET 0.000000 3.647186 0.011889
												}
											}
										}
									}
								}
							}
						}
					}
				}
				JOINT RightShoulder
				{
					OFFSET -15.141001 14.495407 -7.737500
					CHANNELS 3 Xrotation Yrotation Zrotation
					JOINT RightArm
					{
						OFFSET -9.308998 -2.777710 0.208500
						CHANNELS 3 Xrotation Yrotation Zrotation
						JOINT RightForeArm
						{
							OFFSET -29.972300 0.000000 0.000000
							CHANNELS 3 Xrotation Yrotation Zrotation
							JOINT RightHand
							{
								OFFSET -26.026505 0.000000 0.000000
								CHANNELS 3 Xrotation Yrotation Zrotation
								JOINT RightHandThumb1
								{
									OFFSET -12.240601 -7.148026 9.207092
									CHANNELS 3 Xrotation Yrotation Zrotation
									JOINT RightHandThumb2
									{
										OFFSET -4.138618 -2.389435 2.389433
										CHANNELS 3 Xrotation Yrotation Zrotation
										JOINT RightHandThumb3
										{
											OFFSET -2.726974 -1.574417 1.574421
											CHANNELS 3 Xrotation Yrotation Zrotation
											JOINT RightHandThumb4
											{
												OFFSET -3.941010 -2.275345 2.275343
												CHANNELS 3 Xrotation Yrotation Zrotation
												End Site
												{
													OFFSET 0.005814 5.087799 0.009927
												}
											}
										}
									}
								}
								JOINT RightHandIndex1
								{
									OFFSET -24.424698 -1.985657 5.953444
									CHANNELS 3 Xrotation Yrotation Zrotation
									JOINT RightHandIndex2
									{
										OFFSET -6.426697 0.000000 0.000000
										CHANNELS 3 Xrotation Yrotation Zrotation
										JOINT RightHandIndex3
										{
											OFFSET -5.337898 0.000000 0.000000
											CHANNELS 3 Xrotation Yrotation Zrotation
											JOINT RightHandIndex4
											{
												OFFSET -4.409401 0.000000 0.000000
												CHANNELS 3 Xrotation Yrotation Zrotation
												End Site
												{
													OFFSET 0.000000 4.409363 0.014408
												}
											}
										}
									}
								}
								JOINT RightHandMiddle1
								{
									OFFSET -23.810097 0.000000 0.000000
									CHANNELS 3 Xrotation Yrotation Zrotation
									JOINT RightHandMiddle2
									{
										OFFSET -7.176498 0.000000 0.000000
										CHANNELS 3 Xrotation Yrotation Zrotation
										JOINT RightHandMiddle3
										{
											OFFSET -6.774902 0.000000 0.000000
											CHANNELS 3 Xrotation Yrotation Zrotation
											JOINT RightHandMiddle4
											{
												OFFSET -5.403328 0.000000 0.000000
												CHANNELS 3 Xrotation Yrotation Zrotation
												End Site
												{
													OFFSET 0.027702 5.403244 0.017457
												}
											}
										}
									}
								}
								JOINT RightHandRing1
								{
									OFFSET -22.908302 -0.839325 -6.020576
									CHANNELS 3 Xrotation Yrotation Zrotation
									JOINT RightHandRing2
									{
										OFFSET -6.337502 0.000000 0.000000
										CHANNELS 3 Xrotation Yrotation Zrotation
										JOINT RightHandRing3
										{
											OFFSET -5.779297 0.000000 0.000000
											CHANNELS 3 Xrotation Yrotation Zrotation
											JOINT RightHandRing4
											{
												OFFSET -4.965698 0.000000 0.000000
												CHANNELS 3 Xrotation Yrotation Zrotation
												End Site
												{
													OFFSET 0.000000 4.965668 0.016226
												}
											}
										}
									}
								}
								JOINT RightHandPinky1
								{
									OFFSET -20.037003 -1.530334 -10.950259
									CHANNELS 3 Xrotation Yrotation Zrotation
									JOINT RightHandPinky2
									{
										OFFSET -5.254700 0.000000 0.000000
										CHANNELS 3 Xrotation Yrotation Zrotation
										JOINT RightHandPinky3
										{
											OFFSET -4.810204 0.000000 0.000000
											CHANNELS 3 Xrotation Yrotation Zrotation
											JOINT RightHandPinky4
											{
												OFFSET -3.647202 0.000000 0.000000
												CHANNELS 3 Xrotation Yrotation Zrotation
												End Site
												{
													OFFSET 0.000000 3.647186 0.011917
												}
											}
										}
									}
								}
							}
						}
					}
				}
			}
		}
	}
	JOINT LeftUpLeg
	{
		OFFSET 15.427100 -6.655098 0.678600
		CHANNELS 3 Xrotation Yrotation Zrotation
		JOINT LeftLeg
		{
			OFFSET 4.081073 -39.591068 13.024000
			CHANNELS 3 Xrotation Yrotation Zrotation
			JOINT LeftFoot
			{
				OFFSET -4.081074 -37.707932 -15.979700
				CHANNELS 3 Xrotation Yrotation Zrotation
				JOINT LeftToeBase
				{
					OFFSET 5.346399 -15.068900 20.645000
					CHANNELS 3 Xrotation Yrotation Zrotation
					JOINT LeftToe_End
					{
						OFFSET 2.754700 0.931300 11.300900
						CHANNELS 3 Xrotation Yrotation Zrotation
						End Site
						{
							OFFSET 0.000000 11.669021 0.000000
						}
					}
				}
			}
		}
	}
	JOINT RightUpLeg
	{
		OFFSET -15.569500 -6.655098 0.678600
		CHANNELS 3 Xrotation Yrotation Zrotation
		JOINT RightLeg
		{
			OFFSET -4.081825 -39.591045 13.023800
			CHANNELS 3 Xrotation Yrotation Zrotation
			JOINT RightFoot
			{
				OFFSET 4.081824 -37.707954 -15.979600
				CHANNELS 3 Xrotation Yrotation Zrotation
				JOINT RightToeBase
				{
					OFFSET -5.346400 -15.068900 20.645000
					CHANNELS 3 Xrotation Yrotation Zrotation
					JOINT RightToe_End
					{
						OFFSET -2.754700 0.931300 11.300900
						CHANNELS 3 Xrotation Yrotation Zrotation
						End Site
						{
							OFFSET 0.000000 11.669021 0.000000
						}
					}
				}
			}
		}
	}
}
MOTION
Frames: 4
Frame Time: 0.033333
2.195318 72.838898 -1.714865 -5.400171 -46.432138 -0.526712 9.420052 7.435552 -1.366648 2.187715 0.989897 -0.915631 2.202830 0.982771 -0.894152 0.084651 13.220556 4.538679 8.920926 20.138143 -4.130236 -0.000000 -0.000000 -0.000001 1.117177 3.546350 -8.633307 -53.487017 4.935508 -51.503004 0.000062 -106.358046 0.000042 1.988601 -7.706151 -15.869243 -6.141226 -11.690802 -6.761684 9.914110 42.595512 3.409856 -0.422806 8.108105 27.509125 0.000002 -0.000001 0.000001 0.255313 3.378222 -45.814337 5.654088 5.847751 -88.067441 2.162133 4.544817 -50.866362 -0.000001 0.000001 -0.000000 -0.461470 3.841593 -39.722690 6.450753 5.820353 -95.892871 2.182887 4.561566 -51.127729 0.000001 -0.000001 -0.000002 0.469723 4.966827 -39.799447 8.181040 5.368622 -113.503018 3.200490 5.218119 -63.022982 -0.000001 -0.000002 0.000001 -3.762427 9.063689 -45.253825 5.342534 5.829007 -85.005311 8.716833 5.103330 -119.369181 -0.000001 0.000001 0.000002 3.036124 13.027199 -5.371407 -48.713712 27.172834 83.457077 0.000029 105.988294 -0.000026 -8.345378 17.548105 8.775684 -7.341109 13.749651 7.412337 9.855793 -44.489089 -3.903271 -0.115774 -14.513092 -28.973857 -0.000000 0.000001 -0.000002 -0.124375 -2.384789 45.108874 4.500594 -4.654540 88.071164 1.723221 -3.618378 50.920129 -0.000001 -0.000002 -0.000002 -0.761619 -2.932908 39.031061 5.133886 -4.632762 95.881656 1.739744 -3.631697 51.181370 0.000001 0.000000 0.000002 0.154769 -4.068817 39.122671 6.509727 -4.273600 113.462863 2.549589 -4.153926 63.067337 -0.000000 0.000000 0.000001 -4.198873 -8.025514 44.637793 4.252912 -4.639640 85.014818 6.935959 -4.062625 119.322298 -0.000001 0.000000 -0.000000 -34.255851 5.085905 20.300646 56.771860 -7.633888 3.672750 -20.132761 -7.078626 -17.222833 -1.594035 0.000017 -0.000000 -0.000000 -0.000002 -0.000000 -19.408331 -8.979630 -34.668162 57.007805 -2.876839 -4.765872 -26.306332 -10.338051 26.247736 -0.013000 -0.000017 -0.000006 -0.000000 -0.000001 0.000000 
4.093302 72.166344 -1.243874 -5.638605 -46.498473 -0.115974 9.340583 7.682119 -0.516766 2.193948 1.057107 -0.707283 2.202468 1.069746 -0.690891 0.403447 13.300434 4.325218 10.312320 20.175254 -4.944546 0.000000 0.000000 0.000001 0.681827 4.822314 -7.850117 -51.492871 5.329666 -51.340691 0.000006 -107.048250 0.000001 2.017376 -8.277789 -15.622335 -6.141228 -11.690799 -6.761679 9.914107 42.595512 3.409869 -0.422810 8.108106 27.509130 0.000000 0.000001 0.000001 0.255314 3.378219 -45.814341 5.654091 5.847751 -88.067441 2.162138 4.544816 -50.866365 0.000001 0.000002 -0.000000 -0.461469 3.841593 -39.722683 6.450750 5.820355 -95.892871 2.182889 4.561566 -51.127736 0.000001 -0.000002 -0.000002 0.469725 4.966826 -39.799447 8.181042 5.368619 -113.503025 3.200490 5.218116 -63.022975 0.000000 -0.000000 -0.000000 -3.762428 9.063692 -45.253821 5.342533 5.829005 -85.005304 8.716830 5.103331 -119.369181 0.000003 -0.000000 0.000001 3.326598 12.495615 -4.544324 -47.575710 26.920371 81.037094 0.000251 105.057284 -0.000262 -9.426016 16.934177 8.936516 -7.341106 13.749653 7.412339 9.855793 -44.489083 -3.903267 -0.115778 -14.513086 -28.973861 0.000000 -0.000001 0.000001 -0.124374 -2.384787 45.108871 4.500590 -4.654540 88.071164 1.723217 -3.618376 50.920126 -0.000001 -0.000000 0.000002 -0.761619 -2.932907 39.031061 5.133884 -4.632761 95.881656 1.739745 -3.631697 51.181374 -0.000000 -0.000000 0.000001 0.154770 -4.068813 39.122675 6.509726 -4.273603 113.462863 2.549590 -4.153923 63.067337 -0.000000 -0.000001 0.000003 -4.198873 -8.025512 44.637783 4.252915 -4.639638 85.014818 6.935966 -4.062627 119.322298 0.000001 -0.000000 -0.000000 -36.204620 4.743675 21.900042 58.380789 -9.893859 2.790551 -20.411370 -9.253609 -24.206774 -1.648901 0.000001 -0.000004 -0.000000 0.000000 0.000000 -21.858904 -8.536382 -37.152073 57.569294 -1.025823 -5.161042 -24.732590 -10.079546 26.464210 -0.013000 0.000040 -0.000005 0.000000 0.000000 -0.000000 
6.151798 72.268738 -1.186488 -5.882166 -47.300429 -0.123408 9.154036 7.809103 0.037289 2.105659 1.091122 -0.564673 2.111252 1.113586 -0.553276 0.876847 13.270352 4.394781 11.511111 20.120300 -5.508274 0.000000 0.000000 -0.000001 0.275463 5.694199 -6.814603 -50.198434 5.665733 -50.818732 0.000093 -108.242796 0.000094 2.756089 -7.779213 -14.805612 -6.141227 -11.690801 -6.761687 9.914113 42.595508 3.409860 -0.422804 8.108107 27.509130 -0.000001 0.000002 0.000001 0.255313 3.378221 -45.814337 5.654091 5.847754 -88.067441 2.162138 4.544813 -50.866362 0.000000 0.000000 -0.000003 -0.461470 3.841596 -39.722690 6.450750 5.820354 -95.892871 2.182887 4.561566 -51.127733 -0.000000 0.000001 -0.000000 0.469724 4.966826 -39.799447 8.181044 5.368618 -113.503018 3.200493 5.218118 -63.022982 -0.000000 0.000000 0.000000 -3.762431 9.063692 -45.253814 5.342533 5.829008 -85.005304 8.716833 5.103330 -119.369181 -0.000000 -0.000000 0.000002 3.759550 12.172450 -3.413048 -47.831128 26.371084 78.366462 0.000275 103.637069 -0.000288 -11.322424 16.743731 8.977275 -7.341107 13.749657 7.412337 9.855795 -44.489086 -3.903261 -0.115772 -14.513092 -28.973857 -0.000000 -0.000002 0.000002 -0.124376 -2.384785 45.108871 4.500591 -4.654538 88.071164 1.723221 -3.618377 50.920122 0.000000 -0.000001 -0.000001 -0.761618 -2.932906 39.031068 5.133885 -4.632761 95.881656 1.739743 -3.631696 51.181370 -0.000000 0.000002 0.000001 0.154769 -4.068815 39.122675 6.509726 -4.273605 113.462870 2.549587 -4.153926 63.067337 0.000001 0.000001 0.000003 -4.198873 -8.025512 44.637786 4.252914 -4.639638 85.014818 6.935963 -4.062625 119.322298 -0.000000 -0.000001 0.000000 -36.393099 3.977881 24.974843 57.785402 -10.477835 2.005833 -20.936108 -13.600196 -32.308229 0.414372 -0.011082 0.667971 0.000001 -0.000003 -0.000001 -24.713984 -8.042281 -38.199332 57.120660 0.654080 -5.847479 -22.196993 -9.496858 25.983225 -0.012994 0.000008 0.000006 0.000000 0.000000 -0.000000 
8.265503 73.283546 -1.726707 -6.027847 -48.591800 -0.228607 8.856105 7.602743 -0.029637 1.886517 1.009759 -0.539067 1.896012 1.021237 -0.527338 1.526797 13.221175 4.447223 12.320558 19.982997 -5.549515 -0.000002 0.000000 0.000000 0.081477 5.614891 -5.778840 -50.638807 6.896516 -49.368901 0.000036 -110.403478 0.000043 4.149920 -6.002918 -13.157043 -6.141225 -11.690800 -6.761689 9.914110 42.595515 3.409862 -0.422806 8.108105 27.509130 0.000003 0.000003 -0.000001 0.255316 3.378221 -45.814341 5.654092 5.847750 -88.067441 2.162138 4.544815 -50.866362 -0.000000 -0.000000 -0.000000 -0.461467 3.841596 -39.722683 6.450753 5.820354 -95.892871 2.182884 4.561564 -51.127736 0.000001 -0.000000 0.000004 0.469726 4.966826 -39.799458 8.181043 5.368622 -113.503018 3.200488 5.218120 -63.022982 -0.000000 -0.000002 0.000001 -3.762426 9.063691 -45.253825 5.342533 5.829009 -85.005304 8.716832 5.103327 -119.369181 0.000002 0.000000 0.000000 4.100713 12.436673 -2.759873 -49.962697 25.582274 76.960434 0.000230 101.574031 -0.000237 -12.994373 17.422686 8.475265 -7.341107 13.749651 7.412336 9.855798 -44.489086 -3.903261 -0.115770 -14.513097 -28.973854 -0.000001 -0.000002 0.000000 -0.124374 -2.384788 45.108874 4.500589 -4.654541 88.071164 1.723224 -3.618378 50.920122 -0.000000 -0.000001 -0.000001 -0.761618 -2.932908 39.031061 5.133884 -4.632760 95.881656 1.739745 -3.631696 51.181370 0.000001 0.000002 0.000003 0.154771 -4.068815 39.122671 6.509731 -4.273605 113.462863 2.549589 -4.153923 63.067330 0.000001 -0.000002 -0.000002 -4.198872 -8.025515 44.637793 4.252913 -4.639638 85.014818 6.935963 -4.062625 119.322298 0.000001 0.000001 -0.000000 -34.515879 4.135401 27.151735 56.085262 -10.772248 2.537734 -21.055127 -14.766102 -33.012005 3.218839 -0.000010 -0.000010 -0.000000 -0.000001 0.000000 -27.252291 -7.235297 -37.522467 55.567868 1.244071 -6.821282 -18.843799 -8.762068 25.366303 -0.012996 0.000008 -0.000003 0.000000 0.000001 -0.000000 
